<svg id="Layer_1" data-name="Layer 1" xmlns="http://www.w3.org/2000/svg" viewBox="0 0 1024 1024"><defs><style>.cls-1{fill:#d21f3c;}.cls-2{fill:#fff;}</style></defs><title>1024</title><rect class="cls-1" x="-0.14" width="1024.28" height="1024"/><path class="cls-2" d="M596.13,613.13H427.72a109.55,109.55,0,0,1-109.44-109.4V386.21a14,14,0,0,1,14-14H691.59a14,14,0,0,1,14,14V503.73a109.55,109.55,0,0,1-109.44,109.4ZM346.23,400.19V503.73a81.56,81.56,0,0,0,81.48,81.46H596.13a81.56,81.56,0,0,0,81.48-81.46V400.19Z"/><path class="cls-2" d="M691.59,400.19a14,14,0,0,1-14-14V370.28A165.65,165.65,0,0,0,512,204.57c-91.41,0-165.77,74.34-165.77,165.71v15.93a14,14,0,0,1-28,0V370.28c0-106.79,86.9-193.66,193.72-193.66A193.61,193.61,0,0,1,705.57,370.28v15.93a14,14,0,0,1-14,14Z"/><path class="cls-2" d="M332.26,512H260.42a14,14,0,0,1-14-14V458a85.9,85.9,0,0,1,85.81-85.79,14,14,0,1,1,0,27.95A57.92,57.92,0,0,0,274.4,458v26h57.86a14,14,0,1,1,0,27.95Z"/><path class="cls-2" d="M763.58,512h-72a14,14,0,1,1,0-27.95h58V458.17a58.07,58.07,0,0,0-58-58,14,14,0,1,1,0-27.95,86,86,0,0,1,86,85.93V498a14,14,0,0,1-14,14Z"/><path class="cls-2" d="M512,341.08a55.89,55.89,0,1,1,55.91-55.89A56,56,0,0,1,512,341.08Zm0-83.84a27.95,27.95,0,1,0,28,27.95,28,28,0,0,0-28-27.95Z"/><path class="cls-2" d="M421.13,847.38H288.76a14,14,0,0,1-12.13-20.9l75.63-132.33a14,14,0,0,1,12.13-7h56.74a14,14,0,0,1,14,14V833.4a14,14,0,0,1-14,14ZM312.84,819.43h94.31V715H372.49L312.84,819.43Z"/><path class="cls-2" d="M749.16,847.38H616.8a14,14,0,0,1-14-14V701.07a14,14,0,0,1,14-14h56.72a14,14,0,0,1,12.13,7L761.3,826.47a14,14,0,0,1-12.13,20.9ZM630.77,819.43h94.3L665.41,715H630.77V819.43Z"/><path class="cls-2" d="M386.18,715a14,14,0,0,1-14-14V589.58a14,14,0,0,1,28,0v111.5a14,14,0,0,1-14,14Z"/><path class="cls-2" d="M651.74,715a14,14,0,0,1-14-14V581.87a14,14,0,0,1,28,0v119.2a14,14,0,0,1-14,14Z"/></svg>