<svg id="Layer_1" data-name="Layer 1" xmlns="http://www.w3.org/2000/svg" viewBox="0 0 500 400"><defs><style>.cls-1{fill:#d21f3c;}.cls-2{fill:#fff;}.cls-3{fill:#00732f;}.cls-4{font-size:20.99px;font-family:DeansgateCondensed-Bold, Deansgate Condensed;font-weight:700;letter-spacing:0.1em;}.cls-5{letter-spacing:0.07em;}</style></defs><title>500x400</title><rect class="cls-1" x="5.76" y="132.46" width="115.33" height="115.3"/><path class="cls-2" d="M73.33,201.25h-19A12.33,12.33,0,0,1,42,188.93V175.7a1.57,1.57,0,0,1,1.57-1.57H84.07a1.57,1.57,0,0,1,1.57,1.57v13.23a12.33,12.33,0,0,1-12.32,12.32Zm-28.14-24v11.66a9.18,9.18,0,0,0,9.17,9.17h19a9.18,9.18,0,0,0,9.17-9.17V177.27Z"/><path class="cls-2" d="M84.07,177.27a1.57,1.57,0,0,1-1.57-1.57v-1.79a18.66,18.66,0,1,0-37.31,0v1.79a1.57,1.57,0,0,1-3.15,0v-1.79a21.8,21.8,0,1,1,43.61,0v1.79a1.57,1.57,0,0,1-1.57,1.57Z"/><path class="cls-2" d="M43.61,189.86H35.53A1.57,1.57,0,0,1,34,188.29v-4.5a9.67,9.67,0,0,1,9.66-9.66,1.57,1.57,0,1,1,0,3.15,6.52,6.52,0,0,0-6.51,6.51v2.93h6.51a1.57,1.57,0,1,1,0,3.15Z"/><path class="cls-2" d="M92.18,189.86H84.07a1.57,1.57,0,1,1,0-3.15h6.53V183.8a6.54,6.54,0,0,0-6.53-6.53,1.57,1.57,0,1,1,0-3.15,9.69,9.69,0,0,1,9.68,9.68v4.48a1.57,1.57,0,0,1-1.57,1.57Z"/><path class="cls-2" d="M63.85,170.62a6.29,6.29,0,1,1,6.29-6.29,6.3,6.3,0,0,1-6.29,6.29Zm0-9.44A3.15,3.15,0,1,0,67,164.32a3.15,3.15,0,0,0-3.15-3.15Z"/><path class="cls-2" d="M53.62,227.62H38.72a1.57,1.57,0,0,1-1.37-2.35l8.52-14.9a1.57,1.57,0,0,1,1.37-.79h6.39a1.57,1.57,0,0,1,1.57,1.57v14.9a1.57,1.57,0,0,1-1.57,1.57Zm-12.19-3.15H52V212.72h-3.9l-6.72,11.75Z"/><path class="cls-2" d="M90.56,227.62H75.65a1.57,1.57,0,0,1-1.57-1.57v-14.9a1.57,1.57,0,0,1,1.57-1.57H82a1.57,1.57,0,0,1,1.37.79l8.52,14.9a1.57,1.57,0,0,1-1.37,2.35Zm-13.33-3.15H87.84l-6.72-11.75h-3.9v11.75Z"/><path class="cls-2" d="M49.69,212.72a1.57,1.57,0,0,1-1.57-1.57V198.6a1.57,1.57,0,0,1,3.15,0v12.55a1.57,1.57,0,0,1-1.57,1.57Z"/><path class="cls-2" d="M79.59,212.72A1.57,1.57,0,0,1,78,211.15V197.73a1.57,1.57,0,0,1,3.15,0v13.42a1.57,1.57,0,0,1-1.57,1.57Z"/><path class="cls-3" d="M201,199.88l6.58-11.4,19.89,34.21h13.16c-2.92-4.68-30.71-52.19-33.05-56.87l-28.66,49.71-10.68,18.57H128.78c2.19-3.66,17-29.39,31.15-54.1,8.34-14.47,17.55-30.7,27.93-48.39H201l-27.2,47.08-25.3,44h13.16c18-31.73,29.25-50.44,45.92-79.68,1,1.75,52.5,90.94,52.79,91.08H220.91L201,199.88ZM338.87,234H304.65V160.31h34.22v57.26H327.47V168.51H316.06v57.26h22.81V234ZM495,131.6V166H432.12a16.88,16.88,0,0,0-15.21,17,17.09,17.09,0,0,0,15.21,17h40.07v11.4H432.12a28.46,28.46,0,0,1-.58-56.73h52.06V143H432.12v.15a39.83,39.83,0,0,0,0,79.53h51.48V199.88H495v34.21H432.12a51.22,51.22,0,0,1,0-102.34L495,131.6Z"/><path class="cls-3" d="M304.63,131.39v23.23H338.9V131.39ZM327.47,147H316.08v-8h11.39Z"/><text class="cls-4" transform="translate(387.18 262.98)">DELIVE<tspan class="cls-5" x="81.12" y="0">R</tspan><tspan x="95.71" y="0">Y</tspan></text></svg>