<svg id="Layer_1" data-name="Layer 1" xmlns="http://www.w3.org/2000/svg" viewBox="0 0 512 512"><defs><style>.cls-1{fill:#d21f3c;}.cls-2{fill:#fff;}</style></defs><title>512</title><rect class="cls-1" x="-0.07" width="512.14" height="512"/><path class="cls-2" d="M298.07,306.56H213.86a54.77,54.77,0,0,1-54.72-54.7V193.11a7,7,0,0,1,7-7H345.8a7,7,0,0,1,7,7v58.76a54.77,54.77,0,0,1-54.72,54.7ZM173.12,200.09v51.77a40.78,40.78,0,0,0,40.74,40.73h84.21a40.78,40.78,0,0,0,40.74-40.73V200.09Z"/><path class="cls-2" d="M345.8,200.09a7,7,0,0,1-7-7v-8a82.85,82.85,0,1,0-165.69,0v8a7,7,0,0,1-14,0v-8a96.82,96.82,0,1,1,193.64,0v8a7,7,0,0,1-7,7Z"/><path class="cls-2" d="M166.13,256H130.21a7,7,0,0,1-7-7V229a43,43,0,0,1,42.91-42.9,7,7,0,1,1,0,14A29,29,0,0,0,137.2,229v13h28.93a7,7,0,1,1,0,14Z"/><path class="cls-2" d="M381.79,256h-36a7,7,0,1,1,0-14h29V229.09a29,29,0,0,0-29-29,7,7,0,1,1,0-14,43,43,0,0,1,43,43V249a7,7,0,0,1-7,7Z"/><path class="cls-2" d="M256,170.54a27.95,27.95,0,1,1,28-27.95,28,28,0,0,1-28,27.95Zm0-41.92a14,14,0,1,0,14,14,14,14,0,0,0-14-14Z"/><path class="cls-2" d="M210.56,423.69H144.38a7,7,0,0,1-6.07-10.45l37.81-66.17a7,7,0,0,1,6.07-3.52h28.37a7,7,0,0,1,7,7V416.7a7,7,0,0,1-7,7Zm-54.15-14h47.16V357.52H186.25l-29.83,52.19Z"/><path class="cls-2" d="M374.58,423.69H308.4a7,7,0,0,1-7-7V350.54a7,7,0,0,1,7-7h28.36a7,7,0,0,1,6.07,3.52l37.82,66.17a7,7,0,0,1-6.07,10.45Zm-59.2-14h47.15l-29.83-52.19H315.39v52.19Z"/><path class="cls-2" d="M193.09,357.52a7,7,0,0,1-7-7V294.79a7,7,0,0,1,14,0v55.75a7,7,0,0,1-7,7Z"/><path class="cls-2" d="M325.87,357.52a7,7,0,0,1-7-7v-59.6a7,7,0,0,1,14,0v59.6a7,7,0,0,1-7,7Z"/></svg>